<svg xmlns="http://www.w3.org/2000/svg" viewBox="0 0 32 32" fill="none">
  <!-- Background circle (optional, for visibility) -->
  <circle cx="16" cy="16" r="15" fill="#4a90d9"/>
  
  <!-- Interconnected nodes representing collective intelligence -->
  <!-- Center node - larger, representing the community -->
  <circle cx="16" cy="16" r="4" fill="#ffffff"/>
  
  <!-- Surrounding nodes representing individual contributors -->
  <circle cx="16" cy="6" r="2.5" fill="#ffffff"/>
  <circle cx="24.5" cy="11" r="2.5" fill="#ffffff"/>
  <circle cx="24.5" cy="21" r="2.5" fill="#ffffff"/>
  <circle cx="16" cy="26" r="2.5" fill="#ffffff"/>
  <circle cx="7.5" cy="21" r="2.5" fill="#ffffff"/>
  <circle cx="7.5" cy="11" r="2.5" fill="#ffffff"/>
  
  <!-- Connection lines (edges) showing relationships -->
  <line x1="16" y1="12" x2="16" y2="8.5" stroke="#ffffff" stroke-width="1.5" stroke-opacity="0.7"/>
  <line x1="19.5" y1="14" x2="22.5" y2="12" stroke="#ffffff" stroke-width="1.5" stroke-opacity="0.7"/>
  <line x1="19.5" y1="18" x2="22.5" y2="20" stroke="#ffffff" stroke-width="1.5" stroke-opacity="0.7"/>
  <line x1="16" y1="20" x2="16" y2="23.5" stroke="#ffffff" stroke-width="1.5" stroke-opacity="0.7"/>
  <line x1="12.5" y1="18" x2="9.5" y2="20" stroke="#ffffff" stroke-width="1.5" stroke-opacity="0.7"/>
  <line x1="12.5" y1="14" x2="9.5" y2="12" stroke="#ffffff" stroke-width="1.5" stroke-opacity="0.7"/>
  
  <!-- Cross-connections between outer nodes (showing the network effect) -->
  <line x1="16" y1="8.5" x2="22.5" y2="12" stroke="#ffffff" stroke-width="1" stroke-opacity="0.4"/>
  <line x1="22.5" y1="20" x2="16" y2="23.5" stroke="#ffffff" stroke-width="1" stroke-opacity="0.4"/>
  <line x1="9.5" y1="20" x2="16" y2="23.5" stroke="#ffffff" stroke-width="1" stroke-opacity="0.4"/>
  <line x1="9.5" y1="12" x2="16" y2="8.5" stroke="#ffffff" stroke-width="1" stroke-opacity="0.4"/>
</svg>
